<?xml version="1.0" encoding="UTF-8" standalone="no"?>
<!-- Created with Inkscape (http://www.inkscape.org/) -->

<svg
   version="1.1"
   id="svg2"
   width="361"
   height="230"
   viewBox="0 0 361 230"
   sodipodi:docname="Logo_SLF.svg"
   inkscape:version="1.1.2 (0a00cf5339, 2022-02-04)"
   xmlns:inkscape="http://www.inkscape.org/namespaces/inkscape"
   xmlns:sodipodi="http://sodipodi.sourceforge.net/DTD/sodipodi-0.dtd"
   xmlns="http://www.w3.org/2000/svg"
   xmlns:svg="http://www.w3.org/2000/svg">
  <defs
     id="defs6" />
  <sodipodi:namedview
     id="namedview4"
     pagecolor="#ffffff"
     bordercolor="#666666"
     borderopacity="1.0"
     inkscape:pageshadow="2"
     inkscape:pageopacity="0.0"
     inkscape:pagecheckerboard="0"
     showgrid="false"
     inkscape:zoom="1.182803"
     inkscape:cx="32.972523"
     inkscape:cy="109.90841"
     inkscape:window-width="1920"
     inkscape:window-height="1012"
     inkscape:window-x="0"
     inkscape:window-y="0"
     inkscape:window-maximized="1"
     inkscape:current-layer="g8" />
  <g
     inkscape:groupmode="layer"
     inkscape:label="Image"
     id="g8">
    <path
       style="fill:#000000;stroke-width:0.5"
       d="m 136.93741,215.50881 c -1.27913,-0.35272 -2.91927,-1.03023 -3.64476,-1.50559 -1.33379,-0.87394 -3.19666,-4.0649 -2.67665,-4.58491 0.15517,-0.15517 1.79675,-0.5331 3.64796,-0.83986 2.9768,-0.49327 3.41936,-0.4621 3.8289,0.26971 0.75817,1.35477 2.27901,1.95049 3.42024,1.33972 0.55,-0.29435 1,-0.73865 1,-0.98734 0,-0.24868 -1.89378,-1.02978 -4.2084,-1.73579 -5.10602,-1.55743 -6.79267,-3.15726 -6.78973,-6.44024 0.003,-4.10078 3.0709,-6.78722 8.25206,-7.22757 3.48344,-0.29606 6.622,0.66687 8.59087,2.63574 2.62291,2.6229 2.2784,3.52438 -1.6286,4.26158 -3.15914,0.59608 -3.31283,0.57817 -4.04835,-0.47193 -0.52626,-0.75135 -1.17801,-1.04369 -2.09119,-0.938 -2.43357,0.28166 -1.53692,1.58176 1.69188,2.45313 3.78696,1.02201 5.9499,2.12938 6.95111,3.55881 1.07466,1.53429 0.97651,4.81376 -0.2019,6.74644 -1.89452,3.10713 -7.5338,4.7234 -12.09344,3.4661 z m -63.570504,-0.13379 c -0.1946,-0.19459 -0.35381,-5.04131 -0.35381,-10.77048 v -10.41666 h 9 9.000005 v 3 3 h -5.250005 -5.25 v 1.5 1.5 h 4.75 4.750005 v 3 3 h -4.726145 -4.72614 l -0.14886,3.125 -0.14886,3.125 -3.27119,0.14548 c -1.79915,0.08 -3.4304,-0.0138 -3.625,-0.20834 z m 28.991184,-0.009 c -0.18974,-0.18976 -0.34499,-5.03251 -0.34499,-10.76168 v -10.41666 h 8.77495 8.77496 l -0.14996,2.875 -0.14995,2.875 -5.125,0.14249 c -4.71291,0.13103 -5.125,0.22149 -5.125,1.125 0,0.91152 0.36316,0.98251 5.02613,0.98251 h 5.02613 l -0.15113,2.625 -0.15113,2.625 -4.875,0.1431 c -4.46312,0.13102 -4.875,0.22607 -4.875,1.125 0,0.91381 0.36576,0.9819 5.27495,0.9819 h 5.27496 l -0.14996,2.875 -0.14995,2.875 -8.28001,0.13666 c -4.554,0.0752 -8.43525,-0.0186 -8.625,-0.20833 z m 65.00882,0.009 c -0.19459,-0.19459 -0.35381,-3.68057 -0.35381,-7.74662 v -7.39281 l -3.125,-0.14885 -3.125,-0.14886 -0.14995,-2.875 -0.14995,-2.875 h 10.2999 10.29991 l -0.14996,2.875 -0.14995,2.875 -3.1121,0.14852 -3.1121,0.14853 -0.1379,7.60147 -0.1379,7.60148 -3.27119,0.14548 c -1.79915,0.08 -3.4304,-0.0138 -3.625,-0.20834 z m 24.49336,-0.007 c -0.19094,-0.19093 -0.34717,-1.5329 -0.34717,-2.98215 0,-2.60733 0.0171,-2.63663 1.625,-2.79166 l 1.625,-0.15668 0.14333,-4.59196 0.14332,-4.59195 -1.64332,-0.15805 c -1.62979,-0.15674 -1.64457,-0.18185 -1.79371,-3.04732 l -0.15037,-2.88927 6.90037,0.13927 6.90038,0.13928 v 2.75 c 0,2.73709 -0.008,2.75073 -1.625,2.90668 l -1.625,0.15668 v 4.68664 4.68664 l 1.625,0.15668 c 1.61737,0.15594 1.625,0.16959 1.625,2.90668 v 2.75 l -6.52783,0.13883 c -3.59031,0.0764 -6.68406,-0.0174 -6.875,-0.20833 z m 32.32197,-0.28445 c -0.36777,-0.48662 -6.86369,-15.91244 -8.53629,-20.27105 -0.17947,-0.46767 0.75979,-0.625 3.73124,-0.625 h 3.97108 l 1.95742,4.96181 c 1.07657,2.72899 2.1526,5.03524 2.39116,5.125 0.23856,0.0897 1.32368,-2.14306 2.41138,-4.96181 l 1.97765,-5.125 h 3.96361 c 2.17998,0 3.94653,0.16875 3.92564,0.375 -0.0209,0.20625 -1.99161,4.9875 -4.37939,10.625 l -4.34143,10.25 -3.29191,0.14605 c -2.25249,0.0999 -3.44608,-0.0579 -3.78016,-0.5 z m 21.83086,0.14913 c 0,-0.25015 1.77497,-5.0314 3.94438,-10.625 l 3.94437,-10.17017 4.18063,-0.1412 4.18062,-0.1412 4.05323,10.3912 c 2.22927,5.71516 3.95974,10.55995 3.84549,10.7662 -0.11426,0.20625 -1.77502,0.375 -3.6906,0.375 -3.25499,0 -3.51396,-0.0818 -3.95812,-1.25 -0.45132,-1.18708 -0.67318,-1.25 -4.40737,-1.25 -3.70905,0 -3.96443,0.0709 -4.50166,1.25 -0.52879,1.16057 -0.8207,1.25 -4.08025,1.25 -1.93089,0 -3.51072,-0.20467 -3.51072,-0.45483 z m 13.72188,-9.17017 c -0.19003,-0.61875 -0.62752,-1.8 -0.97219,-2.625 l -0.62668,-1.5 -0.55752,1.39705 c -0.30663,0.76838 -0.6962,1.94963 -0.86571,2.625 -0.28539,1.13712 -0.17224,1.22795 1.52971,1.22795 1.675,0 1.80727,-0.0997 1.49239,-1.125 z m 21.62338,9.30359 c -0.18989,-0.18989 -0.34526,-5.03276 -0.34526,-10.76193 v -10.41666 h 3.75 3.75 v 7.75 7.75 h 4.77495 4.77496 l -0.14996,2.875 -0.14995,2.875 -8.02974,0.13693 c -4.41635,0.0753 -8.1851,-0.0184 -8.375,-0.20834 z M 53.252536,214.49163 c -0.83166,-0.60812 -0.8627,-0.80313 -0.24605,-1.54613 0.56927,-0.68593 0.71056,-3.57112 0.73113,-14.92911 0.0222,-12.30003 -0.0851,-14.34863 -0.84952,-16.21398 -1.06135,-2.58983 -1.07418,-2.79831 -0.15046,-2.44384 0.46071,0.1768 0.63231,0.0377 0.47126,-0.38199 -0.1393,-0.363 0.11142,-0.79996 0.55716,-0.971 0.44573,-0.17104 0.70446,-0.48244 0.57495,-0.692 -0.12951,-0.20954 -0.37336,-5.44239 -0.54189,-11.62853 -0.43446,-15.94734 -0.55779,-16.90371 -2.43379,-18.87252 -1.57496,-1.65289 -1.52861,-2.02217 0.14163,-1.12829 0.78704,0.42121 0.9777,0.27105 1.25418,-0.98779 0.17933,-0.81649 0.18361,-1.71501 0.01,-1.99672 -0.1741,-0.28171 -0.0783,-0.5122 0.21295,-0.5122 0.71227,0 0.66865,-1.79118 -0.0955,-3.92108 -0.5,-1.39366 -0.5,-1.78409 0,-1.95216 0.43348,-0.14572 0.625,-1.49244 0.625,-4.3949 0,-4.4112 0.86756,-7.68065 1.5667,-5.90423 0.24391,0.61975 0.36302,0.26619 0.36302,-1.07763 0,-1.55762 -0.0951,-1.77881 -0.42972,-1 -0.43799,1.01927 -0.82033,-10.15084 -0.54337,-15.875 0.11279,-2.33122 -0.008,-2.875 -0.64117,-2.875 -1.1823,0 -1.96531,-1.78573 -1.31546,-3 0.42716,-0.79815 0.38025,-1 -0.23241,-1 -0.52545,0 -0.77867,-0.5126 -0.80273,-1.625005 -0.0294,-1.361758 -0.10475,-1.463008 -0.46486,-0.625 -0.23634,0.55 -0.44553,1.733075 -0.46485,2.629045 -0.0348,1.61001 -0.062,1.62802 -2.3295,1.54226 -1.33095,-0.0503 -2.4497,0.16458 -2.66432,0.51184 -0.45036,0.72869 -3.04133,-2.20088 -3.04133,-3.43878 0,-0.447075 0.35094,-1.994623 0.77988,-3.438993 0.42893,-1.44436 0.68116,-2.89145 0.56051,-3.21574 -0.12065,-0.3243 -0.4976,0.47633 -0.83767,1.77916 -0.70073,2.68456 -1.16417,2.68439 -2.03696,-0.001 -0.33396,-1.02742 -0.91287,-2.04796 -1.28648,-2.26788 -0.3736,-0.21967 -0.67928,-1.06342 -0.67928,-1.87475 0,-0.92756 -0.25855,-1.47516 -0.6965,-1.47516 -0.77402,0 -1.3035,1.05385 -1.3035,2.59439 0,0.70575 -0.23301,0.92318 -0.76892,0.71754 -0.43754,-0.16791 -0.89158,0.0246 -1.0535,0.4465 -0.34504,0.89918 -1.68065,0.9924 -1.66992,0.11657 0.004,-0.34375 0.213,-0.94955 0.46397,-1.34622 0.29958,-0.47348 0.23168,-0.90285 -0.19769,-1.25 -0.35969,-0.29083 -0.79414,-1.13308 -0.96544,-1.87167 -0.25241,-1.088418 0.0679,-1.781128 1.69003,-3.655408 1.10081,-1.27189 2.00147,-2.41133 2.00147,-2.53211 0,-0.12077 -0.73125,-0.21816 -1.625,-0.21643 -1.30402,0.002 -1.81116,0.32351 -2.56747,1.625 -0.54316,0.93471 -1.03745,1.35705 -1.16666,0.99684 -0.34977,-0.97504 -1.20884,-0.74475 -2.79789,0.75 -1.3371,1.25776 -1.43357,1.28248 -1.13134,0.28994 0.18172,-0.59678 0.42141,-1.55766 0.53265,-2.13528 0.11124,-0.57762 0.66428,-1.69907 1.22898,-2.49212 1.29076,-1.8127 1.2978,-2.21779 0.0268,-1.53754 -0.75888,0.40615 -0.99999,0.38025 -0.99998,-0.10741 2e-5,-0.78355 2.78963,-3.11403 6.17586,-5.15937 2.38618,-1.44131 3.75776,-3.62708 3.02251,-4.81673 -0.49356,-0.7986 -2.1186,0.58202 -2.44747,2.07935 -0.33361,1.51889 -1.45451,2.03221 -1.91978,0.87916 -0.1387,-0.34375 -0.26995,-0.15362 -0.29166,0.42251 -0.0368,0.9758 -1.44489,2.70249 -2.20387,2.70249 -0.18459,0 -0.33563,-0.45 -0.33563,-1 0,-0.55555 -0.33333,-1 -0.75,-1 -0.90151,0 -0.92636,-0.2362 -0.17298,-1.64391 0.39528,-0.73859 -0.19529,-0.43333 -1.875,0.96915 -1.34861,1.12603 -3.18327,2.20638 -4.07702,2.40077 -1.53776,0.33447 -1.625,0.27646 -1.625,-1.08056 0,-0.7887 0.45597,-2.32533 1.01326,-3.41473 0.88988,-1.73952 0.91695,-2.00105 0.22231,-2.14771 -0.61515,-0.12988 -0.47918,-0.43807 0.61174,-1.38654 1.78313,-1.5503 1.8465,-1.6143 3.60041,-3.63548 1.37654,-1.58631 1.56403,-1.65472 3.08358,-1.125 2.19254,0.76432 2.4687,0.71932 2.4687,-0.40229 0,-0.53842 -0.45882,-1.11193 -1.03616,-1.29517 -0.62296,-0.19772 -0.9283,-0.60994 -0.76569,-1.0337 0.41637,-1.08504 -0.59348,-0.83465 -1.19932,0.29736 -0.43361,0.81022 -0.66442,0.88255 -1.20494,0.37763 -0.36772,-0.3435 -0.56708,-0.88909 -0.44301,-1.2124 0.12448,-0.3244 -0.29572,-0.6617 -0.93765,-0.75263 -0.63978,-0.0906 -1.38666,-0.67413 -1.65975,-1.29665 -0.31798,-0.72488 -0.76744,-1.02409 -1.25,-0.83214 -1.7497,0.69599 -3.73912,0.65574 -4.5658,-0.0924 -0.5079,-0.45964 -1.26987,-0.65555 -1.84263,-0.47376 -0.63202,0.20059 -1.08019,0.0401 -1.27014,-0.45494 -0.21878,-0.57013 0.0526,-0.76664 1.06578,-0.77172 2.13993,-0.0108 3.60931,-0.54699 3.60931,-1.31719 0,-0.38906 0.3375,-0.83688 0.75,-0.99517 0.4125,-0.1583 0.75,-0.72518 0.75,-1.25976 0,-0.9201 0.0867,-0.90904 1.625,0.2072 2.48745,1.80498 9.35519,3.04249 9,1.62174 -0.0688,-0.275 -0.29375,-0.50797 -0.5,-0.51772 -0.20625,-0.01 -0.825,-0.25987 -1.375,-0.55583 -0.55,-0.29596 -1.58003,-0.67631 -2.28897,-0.84521 -0.70893,-0.16891 -1.911,-0.88359 -2.67127,-1.58818 -0.86726,-0.80375 -1.71761,-1.17465 -2.28222,-0.99545 -0.60522,0.19209 -1.21301,-0.14417 -1.85598,-1.02683 -0.83769,-1.14996 -1.33214,-1.3211 -3.99373,-1.38228 -2.03363,-0.0468 -2.96584,-0.25703 -2.82034,-0.63618 0.12007,-0.31291 -0.4662,-0.70306 -1.31008,-0.87184 -1.84818,-0.36963 -1.98916,-1.19553 -0.27741,-1.62516 1.44045,-0.36152 1.53707,-0.80238 0.51705,-2.35912 -0.69694,-1.06367 -0.5559,-3.3462 0.20678,-3.3462 0.19646,0 0.64493,0.53765 0.99662,1.19477 0.35167,0.65713 1.18778,1.44463 1.85801,1.75 1.60549,0.73151 1.83469,0.70157 1.49073,-0.19477 -0.38799,-1.01108 0.17582,-0.92722 1.68081,0.25 1.58162,1.23716 2.41846,1.29114 1.3275,0.0856 -1.32329,-1.46221 -0.96774,-1.66273 1.0401,-0.5866 2.63106,1.41017 4.02531,1.30025 4.74436,-0.37403 0.32479,-0.75625 0.63555,-1.44684 0.69059,-1.53464 0.055,-0.0878 0.60138,0.13719 1.21409,0.5 0.84491,0.50029 1.16643,0.51545 1.33099,0.0627 0.11934,-0.3283 0.53994,-0.47298 0.93468,-0.3215 0.39473,0.15147 0.71769,0.0399 0.71769,-0.24791 0,-0.28782 0.83939,-0.59314 1.8653,-0.67849 1.56452,-0.13016 0.85906,-0.43737 -4.375,-1.90519 -3.43216,-0.9625 -6.14511,-1.8625 -6.02876,-2 0.11635,-0.1375 -0.5024,-0.96394 -1.375,-1.83654 -1.67951,-1.6795 -2.08811,-2.82454 -0.83654,-2.34427 1.2038,0.46194 0.86383,-0.83573 -0.5,-1.90852 -0.6875,-0.54079 -1.25,-1.41692 -1.25,-1.94696 0,-1.15765 0.0113,-1.15901 1.81785,-0.21651 1.27064,0.66293 1.45038,0.66293 1.59381,0 0.14657,-0.67744 1.5629,-1.05004 2.83834,-0.7467 1.36607,0.32489 1.98705,0.18712 1.86244,-0.41318 -0.0944,-0.45492 0.17989,-0.56193 0.875,-0.3413 0.75219,0.23873 1.01256,0.0974 1.01256,-0.54948 0,-0.74688 0.17795,-0.70368 1.25,0.30346 l 1.25,1.17432 0.0195,-1.46216 0.0195,-1.46216 0.7063,1.625 c 0.88483,2.03569 1.7546,2.09765 1.7546,0.125 0,-0.825 0.225,-1.5 0.5,-1.5 0.275,0 0.5,0.24907 0.5,0.55349 0,0.30442 0.3375,0.42399 0.75,0.2657 0.4125,-0.15829 0.75,-0.0699 0.75,0.1965 0,0.74669 1.07181,0.57431 2.07521,-0.33375 0.83719,-0.75765 0.92736,-0.75704 1.22106,0.008 0.17442,0.45452 0.20272,1.42483 0.0629,2.15625 -0.14177,0.74167 0.0279,1.61203 0.38379,1.96785 0.75282,0.75283 1.30255,0.38601 0.9191,-0.61327 -0.18111,-0.47195 0.0944,-0.70112 0.84274,-0.70112 0.93688,0 1.07138,0.21132 0.85499,1.34331 -0.32267,1.68795 0.0345,2.65669 0.97949,2.65669 0.45871,0 0.69115,0.4203 0.62216,1.125 -0.1828,1.86739 1.75287,5.61059 2.62317,5.07271 0.26564,-0.16417 0.1399,-0.54819 -0.28509,-0.87071 -0.41817,-0.31735 -1.00182,-1.67579 -1.29699,-3.01876 -0.44509,-2.02504 -0.40577,-2.58641 0.23039,-3.28937 1.0438,-1.15337 0.98644,-1.58968 -0.67895,-5.16472 -0.79533,-1.70728 -1.92611,-4.66533 -2.51286,-6.57344 -0.96706,-3.14486 -0.9938,-3.54229 -0.28588,-4.25 0.69109,-0.69089 0.83549,-0.69442 1.2552,-0.0307 0.4043,0.63936 0.47539,0.62092 0.48192,-0.125 0.004,-0.48125 0.3264,-0.875 0.71599,-0.875 0.38958,0 0.83958,-0.28125 1,-0.625 0.23044,-0.49381 0.35434,-0.48943 0.59029,0.0208 0.21561,0.46633 0.47735,0.49753 0.9416,0.11224 0.47281,-0.39239 0.72396,-0.32262 0.94892,0.26361 0.19918,0.51905 0.64126,0.6908 1.26695,0.49222 0.76559,-0.24299 0.90975,-0.10895 0.70891,0.65909 -0.33922,1.29716 0.82121,1.95606 1.59097,0.90336 0.84562,-1.15646 1.24402,-1.03025 1.24402,0.3941 0,0.67127 0.225,1.35955 0.5,1.52951 0.275,0.16996 0.5,0.75515 0.5,1.30042 0,0.54527 0.45,1.47441 1,2.06477 0.55,0.59036 1,1.58227 1,2.20425 0,0.62198 0.30451,1.3108 0.67668,1.53072 0.37218,0.21991 0.82353,0.73734 1.003,1.14984 0.17946,0.4125 0.21211,0.14695 0.0725,-0.59012 -0.20651,-1.09059 -0.0514,-1.36989 0.83285,-1.5 0.59763,-0.0879 1.17928,-0.44128 1.29255,-0.78522 0.13691,-0.41573 -0.10136,-0.5189 -0.71084,-0.30781 -0.53946,0.18685 -0.19654,-0.37217 0.83322,-1.35828 0.9625,-0.92169 2.03125,-1.61706 2.375,-1.54527 0.34783,0.0727 0.625,-0.3498 0.625,-0.9526 0,-0.87534 0.13525,-0.9709 0.70495,-0.49808 0.55514,0.46072 0.84769,0.38128 1.37655,-0.37378 1.22944,-1.75526 5.31415,-4.58196 5.5884,-3.86728 0.24255,0.63207 1.96819,1.149 5.0801,1.52179 0.825,0.0988 1.5838,0.197 1.68622,0.21817 0.10243,0.0211 -0.0939,0.37598 -0.43622,0.78848 -0.5079,0.61199 -0.47936,0.75 0.15509,0.75 0.42764,0 0.9139,-0.42968 1.08058,-0.95484 0.16668,-0.52517 0.59208,-1.19472 0.94532,-1.48788 0.50474,-0.4189 0.59531,-0.21313 0.42299,0.96097 -0.1206,0.82169 -0.41833,1.61702 -0.66163,1.76738 -0.72726,0.44948 -0.50027,1.71438 0.30765,1.71438 1.03428,0 0.94054,0.48273 -0.36323,1.87053 -1.02621,1.09235 -1.03598,1.15665 -0.125,0.82245 0.97789,-0.35875 0.97777,-0.34997 -0.0117,0.83906 -0.55001,0.66089 -1.3375,1.50491 -1.75,1.8756 -0.65142,0.5854 -0.61855,0.62864 0.25,0.32895 2.39806,-0.82744 4.36069,-1.29256 4.57017,-1.08309 0.12451,0.12452 -0.38508,0.37987 -1.13243,0.56744 -0.74735,0.18758 -1.87306,0.74554 -2.50156,1.23992 l -1.14274,0.89888 2.58893,1.67756 2.58893,1.67757 -1.63602,0.3346 c -2.13593,0.43685 -2.17496,0.50074 -1.31645,2.15551 0.40214,0.77513 0.73117,1.4747 0.73117,1.55459 0,0.0799 -0.9,0.0246 -2,-0.12299 -1.20665,-0.16184 -2,-0.065 -2,0.24409 0,0.67372 1.20611,1.11197 3.16589,1.15034 l 1.58411,0.031 -2.14118,1.07533 c -2.18549,1.09757 -2.78407,2.78324 -0.86759,2.44319 0.82033,-0.14556 0.86202,-0.0574 0.29566,0.625 -0.39938,0.48122 -0.4497,0.79445 -0.12762,0.79445 0.29244,0 0.67077,-0.225 0.84073,-0.5 0.37691,-0.60986 0.78558,-0.62047 1.69586,-0.044 0.57122,0.36172 0.48922,0.74095 -0.45785,2.11734 l -1.15371,1.6767 1.70785,-1.55405 c 0.93932,-0.85473 2.46291,-2.20473 3.38576,-3 0.92285,-0.79528 2.34384,-2.76247 3.15774,-4.37154 0.8139,-1.60909 1.601075,-2.80435 1.749255,-2.65617 0.14819,0.14819 -0.0925,0.99498 -0.5349,1.88176 -0.442395,0.88678 -0.741825,1.67485 -0.665415,1.75126 0.0764,0.0764 1.461115,-1.02083 3.077115,-2.43831 1.61599,-1.41749 2.69174,-2.11678 2.39053,-1.55398 -0.3012,0.5628 -0.89742,1.31357 -1.32493,1.66838 -0.42752,0.3548 -0.7773,0.85038 -0.7773,1.10127 0,0.2509 0.69831,-0.33915 1.55179,-1.31122 0.85349,-0.97207 1.79271,-1.7674 2.08716,-1.7674 0.29445,0 0.007,0.5625 -0.63895,1.25 -1.51951,1.61744 -0.80826,1.60381 1.3278,-0.0255 1.59314,-1.21514 2.3405,-1.09285 1.0722,0.17545 -0.77739,0.77739 0.23848,0.82866 1.63287,0.0824 1.362469,-0.72918 1.246859,0.26495 -0.14413,1.23924 -1.27272,0.89144 -0.34664,1.05859 1.219939,0.22018 0.88046,-0.4712 0.99463,-0.43226 0.73283,0.25 -0.22735,0.59246 -0.014,0.81241 0.79918,0.82406 1.02868,0.0148 1.04571,0.0642 0.23431,0.68013 -1.31472,0.99802 -1.05609,1.46519 0.625,1.12897 1.12429,-0.22486 1.5,-0.11528 1.5,0.4375 0,0.4248 -0.477,0.74706 -1.125,0.76005 -0.61875,0.0124 -1.8,0.35132 -2.625,0.75312 l -1.499999,0.73057 1.999999,-0.20385 c 1.1,-0.11212 2.3963,-0.36357 2.88067,-0.55879 0.67391,-0.2716 0.80809,-0.16579 0.5715,0.45074 -0.22967,0.59851 -0.006,0.80958 0.86933,0.82087 1.08721,0.014 1.10635,0.0571 0.24708,0.55642 -0.51228,0.29767 -1.35603,0.96583 -1.875,1.4848 -0.51897,0.51897 -1.3803,0.94358 -1.91407,0.94358 -0.53377,0 -1.09159,0.19594 -1.2396,0.43542 -0.14801,0.23948 -1.005039,0.59801 -1.904509,0.79674 -0.89947,0.19873 -1.35595,0.47094 -1.0144,0.60492 0.84948,0.33325 -0.13867,2.16295 -1.16812,2.16295 -0.41905,0 -0.62286,0.225 -0.4529,0.5 0.40677,0.65816 -0.55832,0.63777 -1.82194,-0.0385 -0.55341,-0.29618 -1.38237,-0.38614 -1.84213,-0.19992 -0.70304,0.28475 -0.63721,0.42504 0.41407,0.88241 l 1.25,0.54383 -1.375,0.1893 c -0.75625,0.10412 -1.375,0.39936 -1.375,0.65609 0,0.25674 -0.39375,0.47189 -0.875,0.47811 -0.48125,0.006 -1.645035,0.90159 -2.586185,1.9897 -1.41769,1.63906 -1.83848,1.87296 -2.45342,1.36368 -0.64219,-0.53184 -0.69493,-0.36194 -0.39117,1.2603 0.38655,2.06442 -0.10018,2.44106 -1.09532,0.84757 -0.55259,-0.88483 -0.96832,-0.98398 -2.99528,-0.71436 -1.58516,0.21086 -2.12579,0.15468 -1.65582,-0.17207 0.55106,-0.38313 0.37228,-0.6535 -0.85017,-1.28565 -1.80802,-0.93497 -2.09764,-0.97645 -2.09764,-0.30049 0,0.275 0.36505,0.5 0.81122,0.5 0.6337,0 0.6857,0.15125 0.23762,0.69116 -0.46547,0.56084 -0.14708,0.81709 1.68878,1.35915 2.12165,0.62645 3.03594,1.44021 1.63738,1.45734 -1.25926,0.0155 0.87825,0.97705 2.18878,0.98469 0.72258,0.004 1.61333,0.3686 1.97945,0.80975 1.16656,1.40562 2.96024,1.81064 4.25667,0.96119 0.640705,-0.4198 1.454095,-0.75984 1.807515,-0.75563 0.50485,0.006 0.49963,0.0983 -0.0243,0.43042 -1.03212,0.65427 0.76493,1.17846 1.92028,0.56013 0.512,-0.27401 1.16364,-0.4982 1.44808,-0.4982 0.80453,0 0.0647,1.41625 -0.869,1.66353 -0.45784,0.12126 0.63006,0.26238 2.41757,0.31361 2.31689,0.0664 2.96289,0.21652 2.25,0.52286 -0.91806,0.3945 -0.89757,0.43322 0.25,0.47251 0.99559,0.0341 1.09735,0.14145 0.5,0.52749 -0.66667,0.43083 -0.66667,0.4875 0,0.51006 0.45165,0.0153 0.2591,0.29716 -0.48402,0.70859 l -1.23402,0.68322 1.23402,0.17431 c 0.81119,0.11458 1.21022,0.47403 1.16457,1.04906 -0.0382,0.48112 0.21551,0.87476 0.56378,0.87476 0.348269,0 0.874759,0.29103 1.169969,0.64674 0.42683,0.5143 0.1592,0.60267 -1.306839,0.43151 -1.61466,-0.1885 -1.76424,-0.11963 -1.20465,0.55464 0.51904,0.62541 0.51774,0.81064 -0.007,0.98717 -0.48136,0.16196 -0.50507,0.39723 -0.0931,0.92363 0.30403,0.38847 0.67696,1.2135 0.82874,1.83339 0.3431,1.40135 -1.23127,1.94044 -3.33311,1.14132 -1.19291,-0.45354 -1.36725,-0.41898 -1.12118,0.22227 0.41421,1.07942 -0.16972,0.94645 -2.35005,-0.53512 -1.04772,-0.71194 -2.03794,-1.16146 -2.20049,-0.99891 -0.16255,0.16255 -0.69917,-0.0697 -1.192495,-0.51619 -0.4994,-0.45194 -1.26165,-0.67179 -1.71975,-0.49599 -0.75812,0.29092 -0.75959,0.41218 -0.0186,1.54304 1.02499,1.56434 1.09369,2.62523 0.11754,1.8151 -0.72461,-0.60137 -2.31337,-0.25737 -2.31337,0.5009 0,1.05384 -1.09584,0.32082 -1.57492,-1.0535 -0.2876,-0.825 -0.8384,-1.5 -1.224,-1.5 -0.97385,0 -0.87683,1.00634 0.17392,1.80398 0.80465,0.61082 0.77785,0.6655 -0.33334,0.68012 -0.66458,0.009 -1.06028,0.16395 -0.87933,0.3449 0.18094,0.18095 0.0806,0.62828 -0.22298,0.99408 -0.59252,0.71394 -0.42079,0.82454 2.15232,1.38632 1.40389,0.30651 2.13724,1.61228 1.63726,2.91521 -0.25895,0.6748 -0.60004,0.65353 -2.87928,-0.17956 -3.02936,-1.10728 -2.84965,-1.07921 -2.84965,-0.44505 0,0.275 0.28125,0.50405 0.625,0.50902 0.77689,0.0112 3.875,3.68199 3.875,4.59128 0,0.36717 0.5625,1.49536 1.25,2.5071 1.45395,2.13967 1.64055,3.892598 0.41437,3.892598 -0.45959,0 -1.22268,0.35028 -1.69574,0.77839 -0.78896,0.714 -0.95047,0.65149 -1.9526,-0.75588 -0.60088,-0.84385 -1.27671,-1.420408 -1.50187,-1.281258 -0.22515,0.13915 -0.54386,-0.0975 -0.70823,-0.52581 -0.16438,-0.42835 -0.55379,-0.62127 -0.86536,-0.42871 -0.38583,0.23845 -0.46091,1.404638 -0.23542,3.656688 0.18208,1.81862 0.30374,3.64408 0.27033,4.05658 -0.0334,0.4125 -0.0237,2.62424 0.0215,4.914973 0.0809,4.09463 0.0626,4.1622 -1.08237,4 -0.98293,-0.13922 -1.33211,-0.7502 -2.23753,-3.91497 -0.93376,-3.263843 -1.11812,-3.575423 -1.42208,-2.403423 -0.19207,0.740618 -0.21683,1.560798 -0.055,1.822608 0.16181,0.26181 -0.042,0.605045 -0.45292,0.762725 -0.4109,0.15769 -0.74711,0.53484 -0.74711,0.83811 0,0.99117 -1.36253,1.94405 -3.45068,2.41323 -1.83974,0.41337 -2.04932,0.36362 -2.04932,-0.4864 0,-0.52076 -0.28125,-0.8906 -0.625,-0.82185 -0.36978,0.074 -0.57991,-0.31434 -0.5146,-0.95089 0.0607,-0.59174 -0.22052,-1.35054 -0.625,-1.686225 -0.61899,-0.51373 -0.7354,-0.3764 -0.7354,0.867565 0,0.81283 -0.16875,1.64822 -0.375,1.8564 -0.20625,0.20818 -0.375,0.86443 -0.375,1.45833 0,0.69547 -0.27595,1.03568 -0.77527,0.95581 -0.66926,-0.10706 -0.79681,1.02103 -0.93284,8.25 -0.23039,12.24363 -0.22094,12.67473 0.32916,15.0229 0.34409,1.46881 0.33323,3.33022 -0.0343,5.88162 -0.4632,3.21525 -0.4283,3.84219 0.2518,4.52228 0.63951,0.63952 0.69021,1.11325 0.26676,2.49296 -0.62469,2.03541 -0.31868,2.48745 1.1513,1.70073 1.02531,-0.54872 1.07394,-0.4976 0.79372,0.83449 -0.40702,1.93483 0.33606,3.09328 1.4116,2.20065 1.30214,-1.08066 0.91159,-0.20553 -1.58689,3.55592 l -2.375,3.57555 0.0793,4.54346 c 0.0437,2.4989 0.36686,9.38095 0.71831,15.29345 0.35145,5.9125 0.61749,11.7625 0.5912,13 -0.0832,3.91781 -0.0945,5.64015 -0.0652,10 0.0334,4.99566 -0.51398,16.75759 -0.85525,18.375 -0.22305,1.05711 -0.48752,1.125 -4.38228,1.125 -2.75194,0 -4.46474,-0.23386 -5.0966,-0.69589 z m 8.97877,-1.25265 c 0.15247,-0.24671 0.13277,-1.83055 -0.0438,-3.51965 l -0.321,-3.0711 -2.30171,0.3378 c -4.19111,0.61508 -4.50007,0.85794 -4.19486,3.29751 0.14821,1.18469 0.49522,2.37899 0.77112,2.65399 0.33542,0.33431 0.40294,-0.26915 0.20378,-1.82112 -0.25976,-2.0242 -0.17211,-2.354 0.68519,-2.57819 0.67721,-0.1771 0.99533,5e-4 1.02252,0.57112 0.0247,0.51928 0.13354,0.59507 0.29167,0.20319 0.53092,-1.31577 1.14737,-0.52738 1.46605,1.875 0.25978,1.95828 0.52797,2.5 1.23771,2.5 0.49835,0 1.03083,-0.20185 1.1833,-0.44855 z m -6.67213,-10.41568 c -0.45338,-0.77878 -0.51668,-0.73479 -0.52405,0.36423 -0.005,0.6875 0.1573,1.8125 0.3598,2.5 0.35276,1.19767 0.3747,1.18242 0.52405,-0.36423 0.0857,-0.88782 -0.0762,-2.01282 -0.3598,-2.5 z m 2.48051,-1.36934 c 0.26038,0.16092 0.47341,1.16603 0.47341,2.23357 0,3.05016 0.98626,2.96376 1.09013,-0.0955 l 0.0901,-2.65451 0.18727,2.375 c 0.14883,1.88745 0.37264,2.375 1.09023,2.375 0.71517,0 0.96689,-0.5398 1.21037,-2.59557 0.16907,-1.42757 0.21422,-2.68876 0.10032,-2.80266 -0.11389,-0.11389 -1.59134,-0.0464 -3.2832,0.14994 l -3.07613,0.35702 0.3221,1.82064 c 0.62663,3.54189 1.01241,3.93168 1.17038,1.18255 0.0861,-1.49764 0.35623,-2.5116 0.625,-2.34549 z m 3.91806,-2.25961 c 1.14334,-0.007 1.18158,-0.11709 0.89052,-2.57463 -0.16726,-1.41229 -0.36735,-2.62989 -0.44465,-2.70578 -0.34097,-0.33478 -5.74775,0.91581 -6.74944,1.56115 -1.09003,0.70225 -1.12095,0.96135 -0.35349,2.96244 0.32555,0.84887 0.4362,0.73552 0.73214,-0.75 l 0.34863,-1.75 0.10096,1.75 c 0.0841,1.45749 0.17279,1.58285 0.53068,0.75 0.34292,-0.79802 0.43682,-0.83168 0.46486,-0.16667 0.0421,0.99905 0.92077,1.43958 2.28514,1.14571 0.55,-0.11846 1.53759,-0.21846 2.19465,-0.22222 z m -5.38328,-6.54389 c 0.29346,-1.05013 0.35358,-1.07871 0.44795,-0.21293 0.0756,0.69334 0.20736,0.54001 0.42975,-0.5 0.3473,-1.62414 1.20445,-1.85593 1.48446,-0.40141 0.2643,1.37289 0.81502,1.73623 2.12915,1.4047 1.07973,-0.27241 1.19732,-0.56977 1.19732,-3.02778 0,-3.1119 0.0479,-3.09057 -4.25755,-1.89354 l -2.99245,0.83198 v 2.70969 c 0,2.8602 0.89249,3.48285 1.56137,1.08929 z m 2.22341,-7.96293 c 0.39337,0 0.71522,0.35244 0.71522,0.78321 0,1.17474 2.68982,0.73874 2.91992,-0.4733 0.23218,-1.22301 -0.56349,-1.67324 -3.64601,-2.06306 -1.38815,-0.17555 -2.91766,-0.43057 -3.39891,-0.56671 -0.69428,-0.19641 -0.875,0.0631 -0.875,1.25666 0,1.64324 0.88228,2.56269 1.5,1.5632 0.48784,-0.78935 1.47766,-0.2184 1.56809,0.90451 0.0415,0.5152 0.15274,0.40602 0.28478,-0.27951 0.11918,-0.61875 0.53853,-1.125 0.93191,-1.125 z m 3.4732,-5.53216 c -0.0856,-1.66769 -0.23491,-3.10053 -0.33181,-3.18409 -0.0969,-0.0836 -1.58242,0.0863 -3.30117,0.37735 -2.64658,0.44825 -3.12605,0.68694 -3.13182,1.55909 -0.004,0.56639 -0.14251,1.53606 -0.30833,2.15481 -0.18088,0.675 -0.0781,1.125 0.25683,1.125 0.30708,0 0.55832,-0.59005 0.55832,-1.31122 0,-1.10884 0.11576,-1.21516 0.75,-0.68878 0.4125,0.34234 0.75,1.04489 0.75,1.56122 0,0.51633 0.25124,0.93878 0.55831,0.93878 0.30708,0 0.44445,-0.43547 0.30526,-0.96771 -0.14631,-0.55949 0.04,-1.08017 0.44169,-1.23431 0.469,-0.17997 0.69474,0.10739 0.69474,0.88438 0,1.44163 0.37031,1.81764 1.79013,1.81764 1.05823,0 1.11444,-0.17608 0.96785,-3.03216 z m -4.26729,-5.46784 0.10899,1.25 0.40032,-1.25 c 0.37266,-1.16363 0.40377,-1.17431 0.45016,-0.15451 0.11884,2.61213 2.83425,1.98277 3.18176,-0.73745 0.13056,-1.02192 0.0907,-2.02289 -0.0886,-2.22438 -0.17929,-0.20148 -1.82076,-0.22675 -3.64772,-0.0561 -3.01297,0.28135 -3.35099,0.4267 -3.63634,1.56365 -0.17303,0.68941 -0.0772,1.49093 0.21307,1.78115 0.37024,0.37024 0.52768,0.27875 0.52768,-0.30663 0,-1.25132 1.48803,-0.4756 1.55916,0.8128 0.0445,0.80482 0.15415,0.69818 0.44084,-0.42849 0.36181,-1.42189 0.38736,-1.43491 0.49069,-0.25 z m -1.96353,-5.25 c 0.35764,0.88841 0.40648,0.85307 0.4377,-0.31669 0.0231,-0.86481 0.36839,-1.40383 1.00619,-1.57062 1.21092,-0.31666 1.52895,-0.0108 1.52895,1.47064 0,0.96296 0.26191,1.16667 1.5,1.16667 1.65027,0 1.78274,-0.47205 1.17122,-4.17346 l -0.31779,-1.92345 -2.80171,0.33417 c -3.22265,0.38437 -4.05172,1.15681 -4.05172,3.77497 0,2.12396 0.66375,3.12261 0.93731,1.41023 0.17754,-1.11138 0.20827,-1.12037 0.58985,-0.17246 z m 0.24735,-9.125 c 0.40207,-1.84967 1.56679,-1.31817 1.9175,0.875 0.29035,1.81578 0.45743,2 1.8139,2 1.47003,0 1.49397,-0.0422 1.48644,-2.625 -0.0111,-3.81945 -0.25817,-4.03322 -4.17585,-3.61367 -3.47525,0.37217 -4.11564,1.01096 -2.5665,2.5601 0.4125,0.4125 0.78064,1.57767 0.81809,2.58928 0.0475,1.28133 0.12782,1.4601 0.26498,0.58929 0.10829,-0.6875 0.30693,-1.75625 0.44144,-2.375 z m 1.81285,-6.75 0.0873,-2.125 0.19141,2.125 c 0.24282,2.69601 1.73264,2.99541 2.59505,0.52151 0.30744,-0.88192 1.04283,-2.11854 1.63421,-2.74803 0.59139,-0.6295 0.95921,-1.26057 0.81739,-1.40239 -0.34605,-0.34605 -8.56202,-1.16026 -9.03776,-0.89565 -0.64296,0.35762 -0.41088,1.99733 0.375,2.64956 0.4125,0.34234 0.75798,0.42614 0.76772,0.18622 0.0322,-0.79259 1.44647,2.04529 1.46456,2.93878 0.0378,1.87034 1.02259,0.75647 1.10508,-1.25 z m 4.10373,-7.09821 c -0.2908,-0.75783 -0.74988,-0.85799 -2.89337,-0.63128 -3.48757,0.36885 -5.75893,1.25814 -4.78078,1.87178 0.40319,0.25293 1.10884,0.34306 1.56812,0.20028 1.78477,-0.55485 2.91494,-0.64156 2.91494,-0.22364 0,0.6866 2.18004,0.87328 2.89337,0.24777 0.36978,-0.32424 0.49639,-0.94721 0.29772,-1.46491 z m -4.44707,-3.15179 c 0.23305,0.87941 0.70113,1.375 1.29866,1.375 1.23084,0 2.49758,-1.98805 2.13942,-3.35765 -0.29593,-1.13166 -1.29037,-1.49878 -5.0571,-1.867 -2.29489,-0.22434 -2.80143,0.47679 -1.375,1.90322 0.4125,0.4125 0.75,1.29108 0.75,1.95238 0,1.92568 0.67639,2.06763 1.30243,0.27334 l 0.5772,-1.65429 z m -1.66507,-0.625 c 0,-0.6875 0.11349,-0.96875 0.25219,-0.625 0.13871,0.34375 0.13871,0.90625 0,1.25 -0.1387,0.34375 -0.25219,0.0625 -0.25219,-0.625 z m 5.13202,-6.5064 c 0.18707,-1.65352 0.22605,-3.19101 0.0866,-3.41663 -0.24199,-0.39154 -1.59607,-0.33461 -5.17257,0.2175 -0.97365,0.1503 -1.625,0.54239 -1.625,0.97818 0,0.40004 0.225,0.72735 0.5,0.72735 0.275,0 0.5,0.675 0.5,1.5 0,0.825 0.18603,1.5 0.41341,1.5 0.22737,0 0.3696,-0.61875 0.31607,-1.375 -0.0535,-0.75625 10e-4,-0.98125 0.12137,-0.5 0.32487,1.29977 1.09637,1.06135 0.80897,-0.25 -0.19809,-0.90382 -0.14124,-0.97755 0.28915,-0.375 0.29465,0.4125 0.53917,1.35 0.54338,2.08333 0.008,1.32864 0.52939,1.80225 2.06807,1.87719 0.62653,0.0305 0.88759,-0.64267 1.15055,-2.96692 z m -6.20381,-5.9936 c 0.2386,0 0.58236,0.24034 0.7639,0.53409 0.18156,0.29374 0.68309,0.39863 1.11454,0.23306 0.43145,-0.16556 0.94308,-0.0444 1.13697,0.26936 0.22133,0.35812 0.93397,0.44268 1.91497,0.22721 1.23443,-0.27112 1.56246,-0.60186 1.56246,-1.57535 0,-1.20977 -0.0659,-1.22951 -3.625,-1.08528 l -3.625,0.14691 -0.0897,1.5 c -0.0493,0.825 0.0234,1.10625 0.16167,0.625 0.13823,-0.48125 0.44655,-0.875 0.68516,-0.875 z m 2.07689,-4.375 0.0841,-1.875 0.19787,1.9043 c 0.18762,1.80554 0.2805,1.89629 1.79095,1.75 1.58814,-0.15383 1.59354,-0.16408 1.74282,-3.31365 l 0.14975,-3.15935 -2.39975,0.34278 c -1.31986,0.18852 -2.54637,0.48523 -2.72557,0.65934 -0.46872,0.45542 0.11841,5.56658 0.63943,5.56658 0.24001,0 0.47422,-0.84375 0.52044,-1.875 z m 3.44882,-5.64259 c 0.53192,-0.28468 0.96713,-0.98522 0.96713,-1.55678 0,-0.95252 -0.19295,-1.01024 -2.31392,-0.69218 -3.9589,0.59367 -4.94603,1.46961 -2.31108,2.05076 0.75625,0.1668 1.6,0.37831 1.875,0.47005 0.275,0.0917 0.57104,0.18455 0.65787,0.20626 0.0868,0.0217 0.59308,-0.19344 1.125,-0.47811 z m 0.34213,-3.76604 c 1.69699,-0.55006 -0.49024,-1.12106 -3.25,-0.84845 -3.04718,0.30101 -3.47205,0.99914 -0.75,1.23237 1.91905,0.16442 2.47209,0.11134 4,-0.38392 z m -0.375,-3.72897 c 0,-0.77309 0.13657,-1.76151 0.3035,-2.1965 0.41302,-1.07632 -0.69565,-1.01591 -3.51204,0.19133 -1.77296,0.75998 -2.28973,1.24081 -2.2838,2.125 0.004,0.62853 0.17296,0.91777 0.375,0.64277 0.613,-0.83437 1.61734,-0.80115 1.61734,0.0535 0,0.501 0.27632,0.69746 0.73399,0.52183 0.40369,-0.15491 0.8609,-0.0763 1.01601,0.17467 0.55564,0.89904 1.75,-0.1333 1.75,-1.5126 z m -0.0948,-6.1124 0.15518,-1.875 h -2.27066 c -2.01611,0 -2.30648,0.14273 -2.59023,1.27328 -0.37675,1.50108 0.0733,2.15393 0.90886,1.31838 0.88128,-0.88128 1.39166,-0.71877 1.39166,0.44311 0,0.78711 0.26926,0.99654 1.125,0.875 0.90367,-0.12834 1.15553,-0.52866 1.28019,-2.03477 z m -2.79876,-4 c 0.18201,0.68267 0.68581,1.125 1.28134,1.125 0.74215,0 1.05371,-0.44565 1.27805,-1.8281 0.16316,-1.005465 0.17932,-2.017965 0.0359,-2.250005 -0.1434,-0.232048 -1.25996,-0.421898 -2.48123,-0.421898 -1.90837,0 -2.22049,0.14471 -2.22049,1.029508 0,0.56623 0.225,0.890455 0.5,0.72049 0.2918,-0.18034 0.52076,0.379945 0.54984,1.345495 0.0457,1.51749 0.0791,1.55099 0.40324,0.40451 0.3525,-1.24685 0.35415,-1.24716 0.65335,-0.125 z m 8.12812,-5.713483 c -0.43414,-0.14471 -0.50422,-4.53451 -0.11824,-7.406168 0.0849,-0.63136 -0.2772,-1.17688 -0.99131,-1.49356 -0.70803,-0.314 -1.14392,-0.9646 -1.17604,-1.75535 -0.0464,-1.14123 -0.0988,-1.10743 -0.57233,0.36856 -0.28671,0.89375 -0.83741,1.625 -1.22379,1.625 -1.10615,0 -3.55218,-1.4125 -4.11278,-2.37499 -0.28031,-0.48126 -0.51649,-0.6241 -0.52485,-0.31744 -0.024,0.88047 1.98281,3.19243 2.77108,3.19243 0.39254,0 0.71716,0.39375 0.72137,0.875 0.006,0.733878 0.0827,0.756378 0.47281,0.13948 0.25584,-0.40454 0.54549,-0.62954 0.64368,-0.5 0.93681,1.235958 2.01314,3.305338 2.16896,4.170098 0.10558,0.58599 0.32453,1.85292 0.48655,2.81542 0.50866,3.02175 0.76047,3.391458 1.38829,2.03835 0.35946,-0.7747 0.38347,-1.27121 0.0666,-1.37683 z m 6.00171,0.27592 c -0.2386,-1.08636 -0.17452,-1.4583 0.21028,-1.22049 0.30756,0.19009 0.55346,0.0195 0.55346,-0.38395 0,-0.86439 -1.34351,-1.49072 -1.75824,-0.81967 -0.42292,0.68431 0.28417,3.98667 0.85362,3.98667 0.28205,0 0.34085,-0.65212 0.14088,-1.56256 z m -11.33084,-1.06646 c 0.18127,-2.19148 -0.49574,-2.65293 -3.15918,-2.15327 -1.89137,0.35483 -2.35476,1.52176 -0.80022,2.01516 0.52031,0.16514 1.0664,0.7606 1.21353,1.32325 0.19115,0.73097 0.59907,0.97602 1.42899,0.85844 0.94541,-0.13395 1.19037,-0.51409 1.31688,-2.04358 z m 13.92572,-1.49598 c -0.1387,-0.34375 -0.25219,-0.0625 -0.25219,0.625 0,0.6875 0.11349,0.96875 0.25219,0.625 0.13871,-0.34375 0.13871,-0.90625 0,-1.25 z m -0.48958,-1.96875 c -0.15961,-0.39887 -0.27809,-0.28039 -0.30208,0.30209 -0.0217,0.52708 0.0965,0.82239 0.26261,0.65625 0.16614,-0.16615 0.1839,-0.5974 0.0394,-0.95834 z m -28.34156,-0.18576 c 0,-0.42873 -0.225,-0.64045 -0.5,-0.47049 -0.275,0.16996 -0.5,0.52074 -0.5,0.77951 0,0.25877 0.225,0.47049 0.5,0.47049 0.275,0 0.5,-0.35078 0.5,-0.77951 z m 14.3042,-0.43142 c 0.52684,-1.37294 -0.73666,-2.789068 -2.48846,-2.789068 -0.90699,0 -1.78357,0.13449 -1.94795,0.29889 -0.55966,0.559648 0.23596,1.701108 1.18571,1.701108 0.52057,0 0.9465,0.3375 0.9465,0.75 0,0.95654 1.93951,0.98943 2.3042,0.039 z m -25.40076,-3.052298 c -0.15395,-0.15394 -0.43353,0.12356 -0.62129,0.61667 -0.27134,0.712598 -0.21391,0.770028 0.2799,0.2799 0.34171,-0.33917 0.49533,-0.74262 0.34139,-0.89657 z m 12.89961,-0.48677 c 0.63362,-2.02438 0.13289,-2.35448 -0.72279,-0.47647 -0.67081,1.47226 -0.73944,2.226468 -0.2026,2.226468 0.2077,0 0.62413,-0.787498 0.92539,-1.749998 z m 7.114,0.28034 c 0.20246,-1.38328 -0.68387,-0.97603 -1.06735,0.49042 -0.17272,0.660468 -0.0586,0.966448 0.31464,0.843628 0.32212,-0.106 0.66083,-0.706318 0.75271,-1.334048 z m 16.08295,-0.53034 c 0,-0.275 -0.23828,-0.5 -0.52951,-0.5 -0.29123,0 -0.39045,0.225 -0.22049,0.5 0.16996,0.275 0.40824,0.5 0.52951,0.5 0.12127,0 0.22049,-0.225 0.22049,-0.5 z m -21,-2.23784 c 0,-0.64836 0.26484,-1.2671 0.58853,-1.375 0.32369,-0.1079 0.42291,-0.46415 0.22049,-0.79167 -0.45804,-0.74112 -1.30902,-0.77998 -1.30902,-0.0598 0,0.29463 -0.36763,0.90334 -0.81696,1.35268 -0.53548,0.53548 -0.62162,0.88208 -0.25,1.00595 0.31183,0.10394 0.56696,0.52101 0.56696,0.92683 0,0.40581 0.225,0.59878 0.5,0.42882 0.275,-0.16996 0.5,-0.83949 0.5,-1.48784 z m 7.38542,1.14409 c -0.30904,-0.92711 -1.38542,-1.08088 -1.38542,-0.19791 0,0.43541 0.35625,0.79166 0.79167,0.79166 0.43542,0 0.7026,-0.26719 0.59375,-0.59375 z m 7.11458,-3.5655 c 0,-0.68953 -1.61781,-5.3896 -1.79438,-5.21303 -0.38779,0.38779 0.8516,5.37228 1.33581,5.37228 0.25222,0 0.45857,-0.0717 0.45857,-0.15925 z m -26.5,-1.56124 c 0,-0.12127 -0.225,-0.35955 -0.5,-0.52951 -0.275,-0.16996 -0.5,-0.0707 -0.5,0.22049 0,0.29123 0.225,0.52951 0.5,0.52951 0.275,0 0.5,-0.0992 0.5,-0.22049 z m 18.25,-0.27951 c -0.16996,-0.275 -0.53401,-0.5 -0.80901,-0.5 -0.275,0 -0.36095,0.225 -0.19099,0.5 0.16996,0.275 0.53402,0.5 0.80902,0.5 0.275,0 0.36094,-0.225 0.19098,-0.5 z m 12.25,-1.5 c 0,-1.1 -0.225,-2 -0.5,-2 -0.5519,0 -0.67246,1.96878 -0.1965,3.2091 0.49091,1.2793 0.6965,0.9224 0.6965,-1.2091 z m -17.75,0.5 c 0.16996,-0.275 0.0707,-0.5 -0.22049,-0.5 -0.29123,0 -0.52951,0.225 -0.52951,0.5 0,0.275 0.0992,0.5 0.22049,0.5 0.12127,0 0.35955,-0.225 0.52951,-0.5 z m 21.02218,-3.83963 c -0.16583,-0.6607 -0.48973,-1.08493 -0.71978,-0.94275 -0.4147,0.2563 -0.28984,1.87515 0.33029,4.28238 0.29788,1.15631 0.33584,1.12302 0.5065,-0.44418 0.10147,-0.93181 0.0488,-2.23476 -0.11701,-2.89545 z m -35.2551,0.53124 c 1.50311,-1.54461 2.26352,-2.56891 1.6898,-2.27622 -1.45638,0.74299 -5.35415,5.08461 -4.5648,5.08461 0.0781,0 1.3719,-1.26378 2.875,-2.80839 z m 6.98292,1.17174 c 0,-0.99292 -0.0636,-1.01403 -0.80916,-0.26847 -0.44504,0.44504 -0.65449,1.05942 -0.46545,1.36529 0.50304,0.81393 1.27461,0.14998 1.27461,-1.09682 z m 26.55059,-0.71951 c -0.48029,-0.82531 -0.52134,-0.81397 -0.53538,0.14782 -0.0169,1.15743 0.61761,2.0599 0.88476,1.25843 0.0939,-0.28183 -0.0633,-0.91464 -0.34938,-1.40625 z m -19.05059,-1.67335 c 0,-0.97377 -0.25334,-1.47049 -0.75,-1.47049 -0.7562,0 -1.09566,2.48767 -0.43026,3.15308 0.60511,0.60509 1.18026,-0.21485 1.18026,-1.68259 z m 2.84208,1.08439 c 0.8062,-0.67315 1.18306,-1.71593 1.43959,-3.98337 0.35171,-3.10876 -0.0322,-3.82696 -1.25701,-2.35123 -0.32877,0.39616 -0.91882,0.59708 -1.31121,0.44651 -0.50185,-0.19258 -0.71345,0.10069 -0.71345,0.98882 0,1.6852 0.50032,2.90321 1.05239,2.56201 0.24618,-0.15215 0.44761,-0.0516 0.44761,0.22337 0,0.275 -0.22379,0.63831 -0.49731,0.80735 -0.27352,0.16905 -0.73144,0.74482 -1.01759,1.27951 -0.68283,1.27588 0.34342,1.29081 1.85698,0.027 z m 11.15792,-0.0549 c 0,-0.275 -0.23828,-0.5 -0.52951,-0.5 -0.29123,0 -0.39045,0.225 -0.22049,0.5 0.16996,0.275 0.40824,0.5 0.52951,0.5 0.12127,0 0.22049,-0.225 0.22049,-0.5 z m -21.58515,-0.875 c 0.24751,-0.48125 0.35605,-1.13563 0.2412,-1.45418 -0.11486,-0.31855 0.0281,-0.72558 0.31756,-0.90451 0.28952,-0.17893 0.52639,-0.77375 0.52639,-1.32183 0,-0.65769 0.51,-1.17428 1.5,-1.5194 0.825,-0.2876 1.5,-0.85167 1.5,-1.2535 0,-0.80579 -0.37978,-0.64539 -2.83655,1.19801 -1.54756,1.16119 -2.66345,3.34191 -2.66345,5.20502 0,1.17027 0.82379,1.1996 1.41485,0.0504 z m -1.97545,-3.75072 c 0.99583,-0.89414 2.4856,-2.14749 3.3106,-2.78521 l 1.5,-1.1595 -1.98827,0.27216 c -2.32996,0.31894 -3.92959,1.41889 -5.34191,3.67327 -0.92701,1.47973 -0.94082,1.625 -0.15452,1.625 0.47493,0 1.67827,-0.73157 2.6741,-1.62572 z m 31.71823,-0.27222 c 0.95317,-1.05323 0.63972,-4.38097 -0.45213,-4.79995 -0.95848,-0.3678 -1.34331,0.50613 -0.72862,1.65468 0.78045,1.4583 0.6389,2.04321 -0.49447,2.04321 -0.86265,0 -0.9361,0.15226 -0.48241,1 0.6604,1.23396 1.11387,1.25541 2.15763,0.10206 z m -22.47573,-2.08683 c -0.33638,-0.33638 -1.1685,1.09168 -1.15652,1.98477 0.006,0.43481 0.30061,0.225 0.70143,-0.49925 0.38025,-0.68708 0.58504,-1.35557 0.45509,-1.48552 z m 30.8181,-0.23572 c 0,-0.39627 -0.225,-0.85955 -0.5,-1.02951 -0.275,-0.16996 -0.5,0.15426 -0.5,0.72049 0,0.56623 0.225,1.02951 0.5,1.02951 0.275,0 0.5,-0.32422 0.5,-0.72049 z m -35.5,-2.26821 c 1.426,-0.37346 2.07676,-2.82136 0.87287,-3.28334 -1.03284,-0.39633 -7.37287,2.59407 -7.37287,3.47757 0,0.60724 0.49215,0.68978 2.625,0.44025 1.44375,-0.16891 3.1875,-0.45443 3.875,-0.63448 z m 32.83343,0.0809 c -0.45185,-0.4993 -0.96578,-1.62898 -1.14207,-2.51041 -0.39735,-1.98672 -0.69169,-2.16982 -3.84303,-2.39063 -1.39414,-0.0977 -2.76284,-0.40566 -3.04156,-0.68438 -0.75986,-0.75986 -1.45339,-0.61004 -1.12595,0.24323 0.42384,1.10452 -0.57067,0.9128 -1.29685,-0.25 -0.34348,-0.55 -1.14618,-1 -1.78375,-1 -0.63758,0 -1.03206,0.20579 -0.87662,0.4573 0.15545,0.25151 0.0129,0.54722 -0.31689,0.65713 -0.32974,0.10992 0.40011,0.59981 1.62189,1.08865 2.32395,0.92984 9.17942,4.08089 10.4714,4.81308 0.4125,0.23377 1.06612,0.43827 1.4525,0.45444 0.55598,0.0232 0.53114,-0.15993 -0.11907,-0.87841 z m 15.041575,-1.64974 c -0.75625,-0.56422 -1.375,-1.34459 -1.375,-1.73416 0,-0.42636 -0.50882,-0.70829 -1.27835,-0.70829 -1.20319,0 -1.23464,0.0624 -0.53483,1.06153 0.82619,1.17954 2.66266,2.3227 3.81318,2.37361 0.44123,0.0195 0.18393,-0.38916 -0.625,-0.99269 z m -52.126335,-0.97863 c 1.78823,-0.8449 3.25133,-1.7449 3.25133,-2 0,-0.67633 -0.32221,-0.59968 -3.52951,0.83966 -1.5975,0.71692 -3.02482,1.61692 -3.17183,2 -0.36089,0.9405 -0.2718,0.91881 3.45001,-0.83966 z m 1.23131,-2.98837 c 0.0324,-0.44471 -3.18878,-1.47545 -4.61097,-1.47545 -0.72049,0 -1.44905,0.225 -1.61901,0.5 -0.16996,0.275 -0.74574,0.5 -1.27951,0.5 -1.37982,0 -1.20073,0.84742 0.3509,1.6604 0.84462,0.44256 1.11523,0.81976 0.75,1.04548 -0.31426,0.19422 -0.57139,0.55383 -0.57139,0.79913 0,0.46543 6.94493,-2.54892 6.97998,-3.02956 z m 35.52002,0.0246 c 0,-0.275 -0.35078,-0.5 -0.77951,-0.5 -0.42873,0 -0.64045,0.225 -0.47049,0.5 0.16996,0.275 0.52074,0.5 0.77951,0.5 0.25877,0 0.47049,-0.225 0.47049,-0.5 z m 7.625,0.16886 c -0.34375,-0.1387 -0.90625,-0.1387 -1.25,0 -0.34375,0.1387 -0.0625,0.25219 0.625,0.25219 0.6875,0 0.96875,-0.11349 0.625,-0.25219 z m -1.73958,-1.07511 c 0.10885,-0.32656 -0.12083,-0.59375 -0.51042,-0.59375 -0.38958,0 -0.70833,0.34375 -0.70833,0.76389 0,0.86436 0.91657,0.73641 1.21875,-0.17014 z m -4.02083,0.10416 c -0.16615,-0.16614 -0.5974,-0.1839 -0.95834,-0.0394 -0.39886,0.1596 -0.28039,0.27808 0.30209,0.30207 0.52708,0.0217 0.82239,-0.0965 0.65625,-0.2626 z m -32.37301,-0.7699 1.6408,-0.57198 -1.19119,-0.6603 c -1.22149,-0.67709 -5.94119,-0.96316 -5.94119,-0.3601 0,0.1846 0.37237,0.7471 0.8275,1.25 0.95306,1.05313 2.33437,1.15453 4.66408,0.34238 z m 3.50842,-0.92801 c 0,-0.275 -0.39375,-0.49656 -0.875,-0.49235 -0.74777,0.007 -0.76595,0.0781 -0.125,0.49235 0.94361,0.6098 1,0.6098 1,0 z m 32.36459,0.19791 c -0.16615,-0.16614 -0.5974,-0.1839 -0.95834,-0.0394 -0.39886,0.1596 -0.28039,0.27808 0.30209,0.30207 0.52708,0.0217 0.82239,-0.0965 0.65625,-0.2626 z m -30.04779,-1.76181 c -1.38823,-0.73225 -2.08593,-0.86697 -2.475,-0.4779 -0.30641,0.30641 -0.33543,0.56953 -0.0668,0.60561 0.26125,0.0351 0.98837,0.11722 1.61583,0.1825 0.62745,0.0653 1.2837,0.26155 1.45833,0.43618 0.17463,0.17463 0.56126,0.30757 0.85918,0.29541 0.29791,-0.0121 -0.32828,-0.48096 -1.39154,-1.0418 z m -3.95221,-0.73818 c -0.16615,-0.16615 -0.5974,-0.18391 -0.95834,-0.0394 -0.39886,0.15961 -0.28039,0.27809 0.30209,0.30208 0.52708,0.0217 0.82239,-0.0965 0.65625,-0.26261 z m 16.27602,-1.2688 c 0.48984,-0.86051 0.75422,-1.70096 0.5875,-1.86767 -0.16671,-0.16672 -0.52241,0.0888 -0.79045,0.56772 -0.26805,0.47896 -0.81367,0.87083 -1.2125,0.87083 -0.74127,0 -0.992,1.0665 -0.39182,1.66667 0.58108,0.58109 0.894,0.36681 1.80727,-1.23755 z m 11.60939,0.0709 c -0.16996,-0.275 -0.52074,-0.5 -0.77951,-0.5 -0.25877,0 -0.47049,0.225 -0.47049,0.5 0,0.275 0.35078,0.5 0.77951,0.5 0.42873,0 0.64045,-0.225 0.47049,-0.5 z m -26.93803,-2.8052 c -1.61592,-1.52281 -3.1273,-2.57947 -3.35862,-2.34815 -0.5837,0.5837 0.0404,2.71623 0.67935,2.32134 0.28545,-0.17642 0.83121,0.10736 1.21278,0.63062 0.56382,0.77317 3.05169,2.05774 4.15452,2.14512 0.1375,0.0109 -1.07211,-1.22613 -2.68803,-2.74893 z m 5.49547,0.4302 c -0.14297,-0.48125 -0.40143,-1.55 -0.57434,-2.375 -0.58521,-2.79218 -1.3111,-4.15377 -2.36081,-4.42827 -1.33477,-0.34905 -2.1305,0.12006 -1.41585,0.83471 0.29895,0.29896 0.54356,0.95802 0.54356,1.46458 0,0.97825 2.9684,5.32655 3.6587,5.35948 0.22478,0.0107 0.29171,-0.37425 0.14874,-0.8555 z m 2.24285,-2.15618 c -0.46202,-1.15655 -0.48852,-1.16343 -0.51859,-0.13472 -0.0174,0.59626 0.13041,1.49627 0.32853,2 0.29635,0.75349 0.38831,0.77738 0.51859,0.13472 0.0871,-0.42965 -0.0607,-1.32965 -0.32853,-2 z m -14.55029,0.53118 c 0,-0.275 -0.3191,-0.5 -0.7091,-0.5 -0.39001,0 -1.06501,-0.13657 -1.5,-0.30349 -0.435,-0.16693 -0.7909,-0.0709 -0.7909,0.21333 0,0.48576 0.95378,0.90027 2.375,1.03216 0.34375,0.0319 0.625,-0.167 0.625,-0.442 z m 3,-2.01531 c 0,-0.1783 -0.61273,-0.60336 -1.36162,-0.94457 -0.99313,-0.45251 -1.41258,-0.46751 -1.54993,-0.0555 -0.13019,0.39056 -0.54102,0.33382 -1.33107,-0.18384 -2.24333,-1.46988 -1.68832,-0.12651 0.62976,1.52429 2.1666,1.54293 2.41478,1.61214 2.98786,0.83323 0.34375,-0.4672 0.625,-0.99534 0.625,-1.17364 z m 3.86905,0.67007 c -0.46488,-0.46488 -1.01283,-0.67765 -1.21766,-0.47281 -0.20484,0.20483 -0.0414,0.58174 0.36309,0.83758 1.21729,0.76983 1.75826,0.53892 0.85457,-0.36477 z m 11.59985,-2.40476 c 5e-4,-0.8035 -0.0827,-0.85262 -0.42362,-0.25 -0.23337,0.4125 -0.5873,1.3125 -0.78651,2 -0.35177,1.21402 -0.33957,1.22122 0.42362,0.25 0.43219,-0.55 0.78612,-1.45 0.78651,-2 z m -4.16461,-7.53883 c -0.64555,-1.68226 -1.13241,-0.0717 -1.0254,3.39197 0.17585,5.69218 0.32412,5.95906 0.84155,1.51472 0.26459,-2.27267 0.34732,-4.48068 0.18385,-4.90669 z m -23.80429,6.28883 c 0,-0.275 -0.0992,-0.5 -0.22049,-0.5 -0.12127,0 -0.35955,0.225 -0.52951,0.5 -0.16996,0.275 -0.0707,0.5 0.22049,0.5 0.29123,0 0.52951,-0.225 0.52951,-0.5 z m 19.49235,-2.14513 c -0.0137,-1.97487 -0.70458,-2.50607 -2.80982,-2.16034 -3.27528,0.53788 -3.60323,0.43442 -5.66702,-1.78775 -1.10167,-1.18623 -2.00585,-1.96048 -2.00927,-1.72056 -0.004,0.23993 -0.34374,0.15613 -0.75624,-0.18622 -0.61425,-0.50978 -0.75,-0.47562 -0.75,0.18878 0,0.44617 0.32019,0.81122 0.71154,0.81122 0.39135,0 1.34958,0.63804 2.12941,1.41787 1.98439,1.98439 3.15739,2.50064 5.03405,2.21552 1.53472,-0.23317 2.35341,0.54048 1.03648,0.97945 -1.03541,0.34514 -0.0562,1.13358 1.54255,1.24203 1.29514,0.0879 1.54473,-0.0744 1.53832,-1 z m -22.99235,-1.35487 c 0,-0.275 -0.3375,-0.5 -0.75,-0.5 -0.4125,0 -0.75,0.225 -0.75,0.5 0,0.275 0.3375,0.5 0.75,0.5 0.4125,0 0.75,-0.225 0.75,-0.5 z m -2.25,-0.5 c 0.16996,-0.275 0.0707,-0.5 -0.22049,-0.5 -0.29123,0 -0.52951,0.225 -0.52951,0.5 0,0.275 0.0992,0.5 0.22049,0.5 0.12127,0 0.35955,-0.225 0.52951,-0.5 z m 37.94598,-2.41442 c 0.66469,-1.05293 1.96126,-2.29161 2.88127,-2.7526 l 1.67275,-0.83818 -2.25,0.30148 c -3.78266,0.50684 -5.12542,1.95621 -4.24194,4.57872 0.32834,0.97463 0.6393,0.76773 1.93792,-1.28942 z m -13.78432,0.0809 c -0.24068,-1.24101 -1.36834,-1.4164 -1.2766,-0.19856 0.0427,0.56767 0.38386,1.03212 0.75801,1.03212 0.37414,0 0.60751,-0.3751 0.51859,-0.83356 z m 51.088344,-1.16644 c 0,-0.275 -0.43672,-0.5 -0.97049,-0.5 -0.53377,0 -1.10955,0.225 -1.27951,0.5 -0.17526,0.28358 0.24481,0.5 0.97049,0.5 0.70373,0 1.27951,-0.225 1.27951,-0.5 z m -65.236774,-1.40344 c -0.15394,-0.15394 -0.55739,-3.1e-4 -0.89656,0.34139 -0.49013,0.49381 -0.4327,0.55124 0.2799,0.2799 0.49311,-0.18776 0.77061,-0.46734 0.61666,-0.62129 z m 1.98677,0.40344 c 0.16996,-0.275 0.084,-0.5 -0.19098,-0.5 -0.275,0 -0.63906,0.225 -0.80902,0.5 -0.16996,0.275 -0.084,0.5 0.19099,0.5 0.275,0 0.63905,-0.225 0.80901,-0.5 z m 10.25,0.31122 c 0,-0.10383 -0.3375,-0.46888 -0.75,-0.81122 -0.61425,-0.50978 -0.75,-0.47562 -0.75,0.18878 0,0.44617 0.3375,0.81122 0.75,0.81122 0.4125,0 0.75,-0.085 0.75,-0.18878 z m 8.31805,-2.15983 c -0.20483,-0.20484 -0.58174,-0.0414 -0.83758,0.36309 -0.76984,1.21728 -0.53893,1.75826 0.36477,0.85457 0.46488,-0.46489 0.67765,-1.01283 0.47281,-1.21766 z m 17.36277,1.09861 c 0.17355,-0.45227 0.002,-0.75 -0.43082,-0.75 -0.43335,0 -0.60436,0.29773 -0.43081,0.75 0.15829,0.4125 0.35216,0.75 0.43081,0.75 0.0786,0 0.27252,-0.3375 0.43082,-0.75 z m 23.319185,-2.25 c 0.619029,-0.40005 0.575369,-0.47988 -0.25,-0.4572 -0.55,0.0151 -1.45,0.22085 -2,0.4572 -0.91583,0.39354 -0.89479,0.43203 0.25,0.4572 0.6875,0.0151 1.5875,-0.19062 2,-0.4572 z m -40.607055,-3.7193 c 0.061,-2.04562 -0.0967,-3.84758 -0.35034,-4.00437 -0.54373,-0.33604 -0.9939,1.84342 -0.82075,3.97367 0.067,0.825 0.15707,2.00625 0.20003,2.625 0.043,0.61875 0.25407,1.125 0.46913,1.125 0.21506,0 0.44092,-1.67369 0.50193,-3.7193 z m -9.15678,-0.1365 c -0.49951,-1.30796 -0.9923,-2.12581 -1.09509,-1.81744 -0.2109,0.63271 1.45598,4.74284 1.78859,4.41023 0.11809,-0.11808 -0.19399,-1.28484 -0.6935,-2.59279 z m 28.51383,-0.6442 c -0.16996,-0.275 -0.68949,-0.48418 -1.15451,-0.46486 -0.68924,0.0286 -0.66069,0.11456 0.15451,0.46486 1.33796,0.57494 1.35533,0.57494 1,0 z m -24.75,-13.5 c 0,-0.825 -0.10458,-1.5 -0.23241,-1.5 -0.47975,0 -1.30165,2.04038 -1.01121,2.51033 0.60336,0.97624 1.24362,0.45609 1.24362,-1.01033 z m 22.84924,-1.81743 c -0.15152,-0.15153 -0.62959,0.40923 -1.06237,1.24613 -1.13096,2.18705 -0.95383,2.60836 0.28393,0.67534 0.57967,-0.90528 0.92997,-1.76994 0.77844,-1.92147 z m 1.21503,2.19243 c 0.54356,-1.02011 0.52189,-1.06102 -0.23241,-0.43878 -0.45752,0.37742 -0.83186,0.88368 -0.83186,1.125 0,0.76374 0.44432,0.47726 1.06427,-0.68622 z m -3,-2 c 0.54356,-1.02011 0.52189,-1.06102 -0.23241,-0.43878 -0.45752,0.37742 -0.83186,0.88368 -0.83186,1.125 0,0.76374 0.44432,0.47726 1.06427,-0.68622 z m -1.56427,151.625001 v -10.5 h 3.75 3.75 v 7.48123 7.48125 l 4.625,0.14375 4.625005,0.14377 0.14995,2.875 0.14996,2.875 h -8.524965 -8.52495 z m 29.100054,7.625 c 0.14862,-2.84943 0.16457,-2.87641 1.79328,-3.03305 l 1.64332,-0.15804 -0.14332,-4.59196 -0.14333,-4.59195 -1.625,-0.15668 c -1.61485,-0.1557 -1.625,-0.17365 -1.625,-2.875 v -2.71832 h 6.75 6.75 v 2.71679 c 0,2.59208 -0.0631,2.72405 -1.375,2.875 l -1.375,0.15821 -0.1433,4.59002 -0.1433,4.59002 1.3933,0.15998 c 1.32372,0.15199 1.40079,0.30354 1.54325,3.03498 l 0.14996,2.875 h -6.79991 -6.7999 z m 32.28798,-4.75 -0.13803,-7.625 -3.125,-0.14886 -3.125,-0.14886 v -2.72614 -2.72614 h 10.25 10.25 v 2.72614 2.72614 l -3.125,0.14886 -3.125,0.14886 -0.13802,7.625 -0.13802,7.625 h -3.72396 -3.72395 z m 26.61197,-2.86347 v -10.51153 h 8.75 8.75 v 2.75 2.75 h -5 -5 v 1.25 1.25 h 5 5 v 2.5 2.5 h -5 -5 v 1.25 1.25 h 5.27613 5.27613 l -0.15113,2.625 -0.15113,2.625 -8.875,0.13653 -8.875,0.13654 z m 30.5,-0.0115 v -10.5 h 7.3828 c 6.19529,0 7.65681,0.14695 9.08637,0.91363 4.45852,2.39113 4.66251,9.71203 0.34943,12.54137 l -1.38001,0.90527 2.74486,3.19486 2.74487,3.19487 -4.08916,0.15431 -4.08916,0.15431 -2.61287,-2.90431 -2.61287,-2.90431 -0.0122,2.875 -0.0121,2.875 h -3.75 -3.75 z m 12.03287,-1.51759 c 1.08998,-0.58334 1.26806,-1.98148 0.36713,-2.88241 -0.33,-0.33 -1.5675,-0.6 -2.75,-0.6 h -2.15 v 2 c 0,1.9594 0.0362,2 1.78287,2 0.98058,0 2.21808,-0.23292 2.75,-0.51759 z m 20.68811,11.10902 c 0.15861,-0.49971 1.94449,-5.16846 3.96864,-10.375 l 3.68027,-9.46643 4.27208,-0.14384 4.27209,-0.14384 0.99918,2.64384 c 0.87377,2.31199 6.2477,16.0732 6.93896,17.76884 0.19065,0.46766 -0.70583,0.625 -3.56108,0.625 -3.61019,0 -3.84148,-0.0674 -4.29112,-1.25 -0.44898,-1.18092 -0.68377,-1.25 -4.24834,-1.25 -3.53943,0 -3.80837,0.0774 -4.34263,1.25 -0.53289,1.16956 -0.80786,1.25 -4.27298,1.25 -3.35167,0 -3.67604,-0.0863 -3.41507,-0.90857 z m 13.57924,-8.31938 c -0.47682,-1.89977 -1.24627,-3.77205 -1.55022,-3.77205 -0.30394,0 -1.0734,1.87228 -1.55021,3.77205 -0.28586,1.13896 -0.17352,1.22795 1.55021,1.22795 1.72373,0 1.83608,-0.089 1.55022,-1.22795 z m 23.19978,-1.27205 v -10.5 l 7.375,0.002 c 6.43253,0.002 7.57956,0.12659 8.97573,0.97789 2.07588,1.26561 3.14927,3.40274 3.14927,6.27011 0,2.80999 -1.06756,5.00172 -3.01235,6.18441 l -1.4638,0.89019 2.7215,3.2127 2.72151,3.2127 -4.10843,0.14724 -4.10842,0.14724 -2.60551,-2.89724 -2.60552,-2.89724 -0.0195,2.875 -0.0195,2.875 h -3.5 -3.5 v -10.5 z m 12.19623,-2.125 c 0.93379,-1.48921 -0.21847,-2.60335 -2.87244,-2.7774 l -2.32379,-0.15239 v 2.05479 2.05479 l 2.32379,-0.1524 c 1.54901,-0.10158 2.5067,-0.44412 2.87244,-1.02739 z m 25.80377,9.34348 c 0,-3.11903 -0.18777,-3.63897 -3.79198,-10.5 l -3.79198,-7.21848 h 3.94539 3.94538 l 1.69319,3.5 c 0.93126,1.925 1.8719,3.5 2.09031,3.5 0.21842,0 1.19028,-1.575 2.15969,-3.5 l 1.76257,-3.5 h 3.74371 c 2.05905,0 3.74372,0.10947 3.74372,0.24326 0,0.1338 -1.79942,3.56504 -3.9987,7.625 -3.67726,6.78836 -3.9988,7.61285 -4,10.25674 l -10e-4,2.875 h -3.75 -3.75 z M 78.392646,139.00687 c -1.02875,-0.38404 -2.43032,-1.06509 -3.1146,-1.51344 -1.35948,-0.89077 -2.9632,-3.58047 -2.54158,-4.26267 0.14532,-0.23514 1.75942,-0.70965 3.58686,-1.05447 2.96029,-0.55856 3.37225,-0.53827 3.77762,0.18609 0.6598,1.17898 2.29882,1.92864 3.43105,1.56928 1.68522,-0.53487 1.10388,-1.67444 -1.14389,-2.24231 -4.13341,-1.04424 -6.36127,-2.09102 -7.61078,-3.57598 -2.51472,-2.98857 -1.0779,-7.63427 2.99238,-9.6753 2.93021,-1.46934 8.28143,-1.35981 11.10029,0.2272 1.728775,0.97329 3.643115,3.42531 3.643115,4.66634 0,0.13355 -1.47593,0.5213 -3.27984,0.86168 -3.115335,0.58782 -3.329485,0.56558 -4.269485,-0.44339 -1.29074,-1.38543 -3.45068,-1.43646 -3.45068,-0.0815 0,0.73773 0.52652,1.11142 2.125,1.50817 6.205055,1.54015 8.646915,3.52981 8.556655,6.9721 -0.11002,4.1958 -3.505585,7.0164 -8.859755,7.35956 -1.87791,0.12036 -3.79891,-0.0745 -4.94236,-0.50135 z m 90.494454,-0.002 c -4.85361,-1.81135 -7.56504,-5.58163 -7.59959,-10.56721 -0.0372,-5.36787 3.42677,-9.52042 8.9756,-10.75985 4.37474,-0.97717 9.20271,0.38481 11.97948,3.37944 1.72414,1.85939 1.60158,2.4902 -0.60448,3.1113 -3.81434,1.07388 -5.38904,1.15588 -6.08535,0.31689 -1.08408,-1.30624 -4.17606,-1.025 -5.72147,0.5204 -1.81604,1.81605 -1.86009,5.18536 -0.0909,6.95454 1.21612,1.21614 3.6508,1.62642 5.48183,0.92379 1.21724,-0.46711 0.93737,-1.19651 -0.45911,-1.19651 -1.18182,0 -1.25,-0.15 -1.25,-2.75 v -2.75 h 5.5 5.5 v 2.51606 c 0,6.23131 -4.12795,10.38764 -10.73529,10.80909 -1.82458,0.11639 -3.75531,-0.0841 -4.89072,-0.50785 z m 131.5828,0.20484 c -3.17723,-0.96277 -5.6973,-3.79005 -6.03628,-6.77205 l -0.17051,-1.5 3.5,-0.14378 c 3.23522,-0.1329 3.53783,-0.0572 4,1 0.36127,0.82642 0.9162,1.14378 2,1.14378 h 1.5 l 0.14376,-4.625 0.14376,-4.625 h -3.26875 -3.26877 v -3.01411 -3.01411 l 6.875,0.13911 6.875,0.13911 0.15467,5.75 c 0.21269,7.90662 -0.17987,10.65612 -1.79561,12.57631 -2.39311,2.84406 -6.88714,4.08685 -10.65227,2.94583 z m -197.35674,-2.89705 c 0.14825,-2.84238 0.16839,-2.87678 1.77495,-3.03168 l 1.625,-0.15668 v -4.71832 -4.71832 h -1.77495 -1.77495 l 0.14995,-2.875 0.14995,-2.875 6.625,-0.13951 6.625,-0.13951 v 3.01451 3.01451 h -1.5 -1.5 v 4.75 4.75 h 1.5 1.5 v 3 3 h -6.77495 -6.77495 z m 24.89995,-7.875 v -10.75 h 2.89341 2.8934 l 4.2316,4.86448 4.23159,4.86448 0.25,-4.73948 0.25,-4.73948 3.375,-0.14784 3.375,-0.14785 v 10.77285 10.77284 h -2.87852 -2.87851 l -3.99649,-4.46269 c -2.19806,-2.45448 -4.16523,-4.47948 -4.37148,-4.5 -0.20625,-0.0205 -0.375,1.98769 -0.375,4.46269 v 4.5 h -3.5 -3.5 z m 66.35885,8.625 c 0.46791,-1.16875 2.33014,-5.95 4.13829,-10.625 l 3.28755,-8.5 h 4.19433 4.19433 l 3.3047,8.5 c 1.81758,4.675 3.68926,9.45625 4.15928,10.625 l 0.85458,2.125 h -3.94175 c -3.78754,0 -3.95402,-0.0489 -4.25548,-1.25 -0.30119,-1.20003 -0.47004,-1.25 -4.22395,-1.25 -3.68568,0 -3.94292,0.0718 -4.47975,1.25 -0.53395,1.17188 -0.8043,1.25 -4.32621,1.25 h -3.75667 z m 13.14115,-7.05039 c 0,-1.06792 -1.05937,-3.82461 -1.46977,-3.82461 -0.32265,0 -1.53023,3.301 -1.53023,4.18301 0,0.17435 0.675,0.31699 1.5,0.31699 0.92635,0 1.5,-0.25829 1.5,-0.67539 z m 21.61506,-1.44961 0.13494,-10.625 6.64478,-0.13965 c 8.2971,-0.17437 10.55563,0.5704 12.10903,3.99308 0.53583,1.18061 0.97917,2.66005 0.98521,3.28763 0.0182,1.89073 -1.41998,4.7797 -3.05701,6.14083 l -1.54171,1.28189 2.83616,3.34311 2.83616,3.34311 h -4.24265 -4.24265 l -2.34491,-2.74474 c -1.2897,-1.50961 -2.5446,-2.62133 -2.78866,-2.47049 -0.24406,0.15084 -0.44375,1.38597 -0.44375,2.74474 v 2.47049 h -3.50995 -3.50994 z m 11.95455,-1.84368 c 0.9615,-0.78904 1.07757,-1.13673 0.6259,-1.875 -0.41357,-0.67598 -1.17602,-0.90632 -3,-0.90632 -2.17821,0 -2.46349,0.12694 -2.61005,1.16136 -0.0905,0.63876 -0.0413,1.48251 0.10931,1.875 0.40237,1.04857 3.48269,0.88742 4.87484,-0.25504 z m 18.4351,12.34368 c 0.002,-0.0688 1.87064,-4.85 4.15121,-10.625 l 4.1465,-10.5 h 4.15305 4.15304 l 3.94575,10.17017 c 2.17016,5.5936 3.94574,10.37485 3.94574,10.625 0,0.25016 -1.66311,0.45483 -3.69579,0.45483 -3.52519,0 -3.71028,-0.0577 -4.00953,-1.25 -0.30196,-1.20312 -0.46387,-1.25 -4.31658,-1.25 -3.80964,0 -4.02579,0.0603 -4.4781,1.25 -0.44882,1.18048 -0.68449,1.25 -4.23762,1.25 -2.06931,0 -3.76026,-0.0563 -3.75767,-0.125 z m 13.99529,-8.69199 c 0,-0.88474 -1.20808,-4.18301 -1.53214,-4.18301 -0.20563,0 -0.71885,1.0125 -1.14051,2.25 l -0.76665,2.25 h 1.71965 c 0.94581,0 1.71965,-0.14265 1.71965,-0.31699 z m 49.22206,6.94199 c 1.60426,-4.43847 6.81155,-17.75355 7.3001,-18.6664 0.47668,-0.89071 0.96591,-0.98255 4.54538,-0.85337 l 4.0112,0.14477 3.9543,10.25 c 2.17487,5.6375 3.95716,10.41875 3.96063,10.625 0.004,0.20625 -1.65678,0.375 -3.68947,0.375 -3.52519,0 -3.71028,-0.0577 -4.00952,-1.25 -0.30197,-1.20312 -0.46387,-1.25 -4.31658,-1.25 -3.80964,0 -4.02579,0.0603 -4.4781,1.25 -0.44848,1.17957 -0.68597,1.25 -4.21545,1.25 h -3.74019 z m 13.07815,-7.85295 c -0.45924,-1.82976 -1.30541,-3.9378 -1.49177,-3.71639 -0.09,0.10689 -0.52002,1.26309 -0.95567,2.56934 l -0.79207,2.375 h 1.77385 c 1.63395,0 1.74955,-0.0969 1.46566,-1.22795 z"
       id="path1357" />
  </g>
</svg>
